External Loads File
version=1
nRows=95
nColumns=13
Range=5.000000e-03-10 seconds
endheader
time 	forceRightX 	forceRightY 	forceRightZ 	pointRightX 	pointRightY 	pointRightZ 	forceLeftX 	forceLeftY 	forceLeftZ 	pointLeftX 	pointLeftY 	pointLeftZ 		
0.005000 8.780712 106.048846 -0.000000 0.438588 0.457222 -0.189997 22.800679 160.925657 -0.000000 0.205032 0.204656 -0.441345
0.010000 8.631670 106.026565 -0.000000 0.438563 0.457250 -0.189995 21.316762 159.809354 -0.000000 0.205039 0.204661 -0.441365
0.015000 8.535670 106.033198 -0.000000 0.438527 0.457267 -0.189997 19.923262 158.736828 -0.000000 0.205053 0.204655 -0.441365
0.020000 8.536301 106.083401 -0.000000 0.438592 0.457289 -0.190108 18.725191 157.756823 -0.000000 0.205082 0.204621 -0.441368
0.025000 8.449392 106.171360 -0.000000 0.438335 0.457782 -0.189847 17.504160 156.911164 -0.000000 0.205036 0.204653 -0.441227
0.030000 8.500235 106.241513 -0.000000 0.438283 0.457879 -0.189838 16.657617 156.151694 -0.000000 0.205063 0.204634 -0.441207
0.035000 8.543498 106.268241 -0.000000 0.438262 0.457951 -0.189837 16.005243 155.478851 -0.000000 0.205101 0.204597 -0.441198
0.040000 8.548405 106.225664 -0.000000 0.438244 0.458007 -0.189849 15.505616 154.870681 -0.000000 0.205153 0.204568 -0.441189
0.045000 8.505035 106.110008 -0.000000 0.438210 0.458048 -0.189842 15.137434 154.320828 -0.000000 0.205197 0.204547 -0.441197
0.050000 8.416772 105.947950 -0.000000 0.438204 0.458094 -0.189858 14.886818 153.831302 -0.000000 0.205237 0.204511 -0.441199
0.055000 8.305660 105.779176 -0.000000 0.438190 0.458108 -0.189860 14.746900 153.395671 -0.000000 0.205266 0.204483 -0.441189
0.060000 8.180511 105.632854 -0.000000 0.438192 0.458121 -0.189847 14.692672 153.017634 -0.000000 0.205290 0.204451 -0.441197
0.065000 8.041443 105.512655 -0.000000 0.438190 0.458145 -0.189849 14.712890 152.720216 -0.000000 0.205301 0.204443 -0.441202
0.070000 7.894951 105.399210 -0.000000 0.438189 0.458150 -0.189855 14.817000 152.517592 -0.000000 0.205306 0.204455 -0.441192
0.075000 7.738603 105.272042 -0.000000 0.438219 0.458154 -0.189866 14.978217 152.401221 -0.000000 0.205300 0.204443 -0.441209
0.080000 7.591542 105.125090 -0.000000 0.438228 0.458144 -0.189862 15.180536 152.358632 -0.000000 0.205281 0.204455 -0.441196
0.085000 7.467328 104.966546 -0.000000 0.438237 0.458150 -0.189887 15.411421 152.395579 -0.000000 0.205261 0.204476 -0.441187
0.090000 7.386644 104.807378 -0.000000 0.438265 0.458131 -0.189888 15.698641 152.528168 -0.000000 0.205232 0.204499 -0.441184
0.095000 7.321255 104.658752 -0.000000 0.438274 0.458114 -0.189878 16.031706 152.780312 -0.000000 0.205205 0.204526 -0.441188
0.100000 7.246231 104.528349 -0.000000 0.438286 0.458110 -0.189873 16.414422 153.155010 -0.000000 0.205178 0.204550 -0.441200
0.105000 7.134133 104.427824 -0.000000 0.438299 0.458099 -0.189867 16.805035 153.611353 -0.000000 0.205150 0.204563 -0.441195
0.110000 6.983600 104.368426 -0.000000 0.438307 0.458070 -0.189864 17.153096 154.078997 -0.000000 0.205110 0.204585 -0.441186
0.115000 6.778172 104.346628 -0.000000 0.438309 0.458064 -0.189864 17.402325 154.515806 -0.000000 0.205091 0.204612 -0.441182
0.120000 6.528853 104.344214 -0.000000 0.438309 0.458062 -0.189871 17.570495 154.910478 -0.000000 0.205077 0.204631 -0.441179
0.125000 6.263818 104.358565 -0.000000 0.438310 0.458038 -0.189861 17.679588 155.253900 -0.000000 0.205055 0.204631 -0.441166
0.130000 6.009582 104.409629 -0.000000 0.438296 0.458031 -0.189834 17.719350 155.536275 -0.000000 0.205050 0.204635 -0.441184
0.135000 5.801357 104.509643 -0.000000 0.438287 0.458036 -0.189863 17.705441 155.752641 -0.000000 0.205061 0.204635 -0.441172
0.140000 5.654753 104.650187 -0.000000 0.438273 0.458046 -0.189848 17.641662 155.894760 -0.000000 0.205064 0.204627 -0.441167
0.145000 5.575139 104.819753 -0.000000 0.438246 0.458049 -0.189861 17.517138 155.952007 -0.000000 0.205082 0.204609 -0.441176
0.150000 5.584050 105.014631 -0.000000 0.438248 0.458071 -0.189857 17.356289 155.931989 -0.000000 0.205101 0.204609 -0.441176
0.155000 5.677410 105.233504 -0.000000 0.438243 0.458069 -0.189871 17.168454 155.863069 -0.000000 0.205133 0.204585 -0.441157
0.160000 5.852407 105.473272 -0.000000 0.438234 0.458082 -0.189871 16.982341 155.765241 -0.000000 0.205161 0.204573 -0.441170
0.165000 6.090987 105.734696 -0.000000 0.438221 0.458091 -0.189872 16.816867 155.648650 -0.000000 0.205183 0.204558 -0.441178
0.170000 6.365001 106.018454 -0.000000 0.438232 0.458108 -0.189863 16.682263 155.512279 -0.000000 0.205215 0.204536 -0.441180
0.175000 6.648296 106.315071 -0.000000 0.438229 0.458110 -0.189868 16.585383 155.346682 -0.000000 0.205227 0.204527 -0.441178
0.180000 6.919201 106.601689 -0.000000 0.438234 0.458108 -0.189880 16.535829 155.166972 -0.000000 0.205244 0.204523 -0.441164
0.185000 7.177207 106.847874 -0.000000 0.438242 0.458093 -0.189889 16.573904 155.019726 -0.000000 0.205248 0.204540 -0.441160
0.190000 7.395218 107.026768 -0.000000 0.438259 0.458104 -0.189874 16.689144 154.944590 -0.000000 0.205251 0.204547 -0.441177
0.195000 7.555740 107.112683 -0.000000 0.438279 0.458099 -0.189887 16.885244 154.949787 -0.000000 0.205238 0.204560 -0.441156
0.200000 7.613423 107.086873 -0.000000 0.438285 0.458086 -0.189898 17.143875 155.046404 -0.000000 0.205233 0.204573 -0.441161
0.205000 7.560696 106.942406 -0.000000 0.438308 0.458061 -0.189879 17.488157 155.238050 -0.000000 0.205209 0.204575 -0.441162
0.210000 7.390339 106.683871 -0.000000 0.438331 0.458051 -0.189881 17.896327 155.507229 -0.000000 0.205182 0.204607 -0.441174
0.215000 7.114307 106.322599 -0.000000 0.438373 0.458022 -0.189889 18.335405 155.824325 -0.000000 0.205161 0.204625 -0.441171
0.220000 6.757241 105.892675 -0.000000 0.438387 0.458006 -0.189895 18.755690 156.165723 -0.000000 0.205142 0.204647 -0.441151
0.225000 6.374521 105.458773 -0.000000 0.438407 0.457983 -0.189885 19.126135 156.509750 -0.000000 0.205127 0.204658 -0.441148
0.230000 6.011246 105.095263 -0.000000 0.438415 0.457989 -0.189884 19.409811 156.837568 -0.000000 0.205113 0.204681 -0.441160
0.235000 5.714486 104.848074 -0.000000 0.438436 0.457953 -0.189882 19.609408 157.120944 -0.000000 0.205106 0.204693 -0.441163
0.240000 5.481644 104.725806 -0.000000 0.438446 0.457957 -0.189890 19.690626 157.336144 -0.000000 0.205102 0.204690 -0.441152
0.245000 5.332932 104.712386 -0.000000 0.438455 0.457965 -0.189883 19.684084 157.472407 -0.000000 0.205101 0.204701 -0.441155
0.250000 5.257148 104.783628 -0.000000 0.438447 0.457957 -0.189864 19.597049 157.542213 -0.000000 0.205104 0.204690 -0.441156
0.255000 5.249198 104.910798 -0.000000 0.438451 0.457953 -0.189878 19.460014 157.555531 -0.000000 0.205121 0.204677 -0.441142
0.260000 5.271476 105.067567 -0.000000 0.438453 0.458050 -0.189898 19.272659 157.531629 -0.000000 0.205136 0.204670 -0.441134
0.265000 5.328646 105.225023 -0.000000 0.438431 0.458057 -0.189882 19.115084 157.489158 -0.000000 0.205161 0.204648 -0.441136
0.270000 5.391239 105.359872 -0.000000 0.438426 0.458074 -0.189891 18.990393 157.433006 -0.000000 0.205185 0.204642 -0.441151
0.275000 5.440637 105.467125 -0.000000 0.438421 0.458102 -0.189887 18.862644 157.345636 -0.000000 0.205212 0.204607 -0.441140
0.280000 5.546297 105.557318 -0.000000 0.438414 0.457886 -0.189884 18.801544 157.207660 -0.000000 0.205237 0.204575 -0.441134
0.285000 5.595947 105.652583 -0.000000 0.438404 0.458083 -0.189907 18.605959 157.040347 -0.000000 0.205263 0.204574 -0.441137
0.290000 5.716301 105.752220 -0.000000 0.438404 0.458092 -0.189883 18.431781 156.810828 -0.000000 0.205287 0.204552 -0.441144
0.295000 5.880221 105.857267 -0.000000 0.438389 0.458101 -0.189885 18.219835 156.520977 -0.000000 0.205302 0.204537 -0.441142
0.300000 6.090453 105.964449 -0.000000 0.438383 0.458109 -0.189887 17.977792 156.181189 -0.000000 0.205313 0.204533 -0.441139
0.305000 6.327290 106.064691 -0.000000 0.438381 0.458122 -0.189894 17.699579 155.800547 -0.000000 0.205338 0.204513 -0.441139
0.310000 6.580460 106.141984 -0.000000 0.438382 0.458112 -0.189894 17.417040 155.384886 -0.000000 0.205338 0.204501 -0.441142
0.315000 6.801787 106.181192 -0.000000 0.438389 0.458126 -0.189886 17.124930 154.951305 -0.000000 0.205341 0.204499 -0.441138
0.320000 6.950231 106.167861 -0.000000 0.438387 0.458119 -0.189893 16.825714 154.511281 -0.000000 0.205348 0.204494 -0.441152
0.325000 7.000625 106.097801 -0.000000 0.438386 0.458116 -0.189899 16.529519 154.083656 -0.000000 0.205327 0.204508 -0.441139
0.330000 6.948897 105.990960 -0.000000 0.438389 0.458107 -0.189868 16.260237 153.720343 -0.000000 0.205308 0.204525 -0.441155
0.335000 6.817977 105.886518 -0.000000 0.438382 0.458102 -0.189874 16.066245 153.493009 -0.000000 0.205287 0.204538 -0.441148
0.340000 6.651821 105.824437 -0.000000 0.438397 0.458084 -0.189883 16.015757 153.459582 -0.000000 0.205258 0.204547 -0.441150
0.345000 6.464555 105.835334 -0.000000 0.438385 0.458081 -0.189874 16.114023 153.659696 -0.000000 0.205241 0.204572 -0.441158
0.350000 6.320825 105.927818 -0.000000 0.438381 0.458065 -0.189876 16.400826 154.099927 -0.000000 0.205208 0.204600 -0.441146
0.355000 6.246848 106.089817 -0.000000 0.438370 0.458049 -0.189860 16.830718 154.749833 -0.000000 0.205185 0.204600 -0.441154
0.360000 6.263470 106.290378 -0.000000 0.438361 0.458041 -0.189854 17.362871 155.531254 -0.000000 0.205158 0.204624 -0.441150
0.365000 6.335608 106.500422 -0.000000 0.438348 0.458039 -0.189855 17.905693 156.355409 -0.000000 0.205145 0.204640 -0.441149
0.370000 6.445682 106.710807 -0.000000 0.438331 0.458021 -0.189863 18.403481 157.145089 -0.000000 0.205134 0.204630 -0.441141
0.375000 6.579707 106.929502 -0.000000 0.438318 0.458039 -0.189858 18.809022 157.845579 -0.000000 0.205134 0.204623 -0.441150
0.380000 6.741346 107.151514 -0.000000 0.438309 0.458056 -0.189851 19.114565 158.405466 -0.000000 0.205142 0.204616 -0.441157
0.385000 6.927600 107.347544 -0.000000 0.438293 0.457914 -0.189850 19.313868 158.764673 -0.000000 0.205160 0.204580 -0.441148
0.390000 7.018965 107.491310 -0.000000 0.438279 0.458086 -0.189862 19.246501 158.897456 -0.000000 0.205190 0.204552 -0.441147
0.395000 7.096439 107.562479 -0.000000 0.438276 0.458111 -0.189858 19.080089 158.793788 -0.000000 0.205227 0.204545 -0.441151
0.400000 7.122304 107.570167 -0.000000 0.438268 0.458117 -0.189855 18.810046 158.506673 -0.000000 0.205257 0.204522 -0.441147
0.405000 7.099030 107.533581 -0.000000 0.438259 0.458141 -0.189841 18.450047 158.084141 -0.000000 0.205309 0.204487 -0.441149
0.410000 7.071719 107.473200 -0.000000 0.438253 0.458153 -0.189844 18.044942 157.558792 -0.000000 0.205340 0.204448 -0.441134
0.415000 7.048676 107.408128 -0.000000 0.438254 0.458191 -0.189845 17.594942 156.966395 -0.000000 0.205382 0.204417 -0.441132
0.420000 7.055962 107.340205 -0.000000 0.438270 0.458201 -0.189860 17.154274 156.339439 -0.000000 0.205422 0.204399 -0.441133
0.425000 7.071493 107.245853 -0.000000 0.438281 0.458214 -0.189858 16.746148 155.728454 -0.000000 0.205460 0.204381 -0.441125
0.430000 7.070006 107.077049 -0.000000 0.438294 0.458222 -0.189859 16.426773 155.183068 -0.000000 0.205482 0.204372 -0.441131
0.435000 7.000010 106.792740 -0.000000 0.438294 0.458233 -0.189856 16.197922 154.723665 -0.000000 0.205501 0.204335 -0.441146
0.440000 6.876119 106.387317 -0.000000 0.438335 0.458238 -0.189867 16.079874 154.325020 -0.000000 0.205512 0.204328 -0.441147
0.445000 6.709746 105.900740 -0.000000 0.438364 0.458233 -0.189858 16.018663 153.958092 -0.000000 0.205507 0.204330 -0.441138
0.450000 6.544231 105.396346 -0.000000 0.438373 0.458223 -0.189868 15.993708 153.617871 -0.000000 0.205507 0.204373 -0.441136
0.455000 6.398656 104.942342 -0.000000 0.438386 0.458223 -0.189873 15.983278 153.345417 -0.000000 0.205490 0.204340 -0.441152
0.460000 6.329434 104.590166 -0.000000 0.438400 0.458207 -0.189883 16.067214 153.197679 -0.000000 0.205466 0.204392 -0.441137
0.465000 6.311595 104.369713 -0.000000 0.438421 0.458197 -0.189891 16.232518 153.223375 -0.000000 0.205429 0.204430 -0.441126
0.470000 6.309488 104.280530 -0.000000 0.438408 0.458184 -0.189887 16.455507 153.433941 -0.000000 0.205402 0.204438 -0.441119
0.475000 6.315055 104.293976 -0.000000 0.438412 0.458169 -0.189863 16.760015 153.814848 -0.000000 0.205368 0.204468 -0.441123
